# xmcd
#
# Track frame offsets: 
#        150
#        16647
#        35875
#        63353
#        83278
#        108593
#        131930
#        151009
#        171526
#        188860
#        206128
#        247615
#
# Disc length: 3664 seconds
#
# Revision: 0
# Processed by: cddbd v1.5.2PL0 Copyright (c) Steve Scherf et al.
# Submitted via: ExactAudioCopy v1.0b3
#
DISCID=980e4e0c
DTITLE=Kala - Manila High
DYEAR=2005
DGENRE=Blues
TTITLE0=Pulis Pangkalawakan
TTITLE1=Parapap
TTITLE2=Jeepney
TTITLE3=Sync of 8
TTITLE4=Salamin
TTITLE5=Southside
TTITLE6=Piso Pisong Paraiso
TTITLE7=Manila High
TTITLE8=Bakbakan Na
TTITLE9=Tubero
TTITLE10=Weather Forecast
TTITLE11=Jeepney (nude mix)
EXTD=
EXTT0=
EXTT1=
EXTT2=
EXTT3=
EXTT4=
EXTT5=
EXTT6=
EXTT7=
EXTT8=
EXTT9=
EXTT10=
EXTT11=
PLAYORDER=
